<svg xmlns="http://www.w3.org/2000/svg" viewBox="0 0 100 100" width="100" height="100">
  <defs>
    <linearGradient id="bgGradient" x1="0%" y1="0%" x2="100%" y2="100%">
      <stop offset="0%" style="stop-color:#dc2626"/>
      <stop offset="100%" style="stop-color:#b91c1c"/>
    </linearGradient>
    
    <filter id="shadow" x="-50%" y="-50%" width="200%" height="200%">
      <feDropShadow dx="0" dy="2" stdDeviation="3" flood-color="rgba(0,0,0,0.4)"/>
    </filter>
  </defs>
  
  <circle cx="50" cy="50" r="47" fill="url(#bgGradient)" filter="url(#shadow)"/>
  
  <g transform="translate(50,50)" fill="white">
    <ellipse cx="0" cy="12" rx="20" ry="12" opacity="0.95"/>
    
    <ellipse cx="-8" cy="8" rx="4" ry="8" opacity="0.9"/>
    <ellipse cx="0" cy="6" rx="4" ry="10" opacity="0.9"/>
    <ellipse cx="8" cy="8" rx="4" ry="8" opacity="0.9"/>
    
    <rect x="-12" y="20" width="24" height="8" rx="4" opacity="0.8"/>
    
    <g transform="translate(0,-10)">
      <path d="M0,8 C-12,0 -12,-16 0,-8 C12,-16 12,0 0,8 Z" fill="#ff4757"/>
      
      <path d="M0,8 C-12,0 -12,-16 0,-8 C12,-16 12,0 0,8 Z" fill="white" opacity="0.4"/>
      
      <ellipse cx="-3" cy="-2" rx="3" ry="4" fill="white" opacity="0.6"/>
    </g>
  </g>
  
  <circle cx="50" cy="50" r="47" fill="none" stroke="rgba(255,255,255,0.2)" stroke-width="2"/>
  
  <ellipse cx="50" cy="25" rx="25" ry="8" fill="white" opacity="0.1"/>
</svg>